<?xml version="1.0" encoding="UTF-8" standalone="no"?>
<!-- Created with Inkscape (http://www.inkscape.org/) -->

<svg
   xmlns:dc="http://purl.org/dc/elements/1.1/"
   xmlns:cc="http://creativecommons.org/ns#"
   xmlns:rdf="http://www.w3.org/1999/02/22-rdf-syntax-ns#"
   xmlns:svg="http://www.w3.org/2000/svg"
   xmlns="http://www.w3.org/2000/svg"
   xmlns:sodipodi="http://sodipodi.sourceforge.net/DTD/sodipodi-0.dtd"
   xmlns:inkscape="http://www.inkscape.org/namespaces/inkscape"
   width="210mm"
   height="297mm"
   viewBox="0 0 210 297"
   version="1.1"
   id="svg8"
   inkscape:version="0.92.2 5c3e80d, 2017-08-06"
   sodipodi:docname="drawing3.svg">
  <sodipodi:namedview
     id="base"
     pagecolor="#ffffff"
     bordercolor="#666666"
     borderopacity="1.0"
     inkscape:pageopacity="0.0"
     inkscape:pageshadow="2"
     inkscape:zoom="0.35"
     inkscape:cx="700.6216"
     inkscape:cy="87.206199"
     inkscape:document-units="mm"
     inkscape:current-layer="layer1"
     showgrid="false"
     inkscape:window-width="1918"
     inkscape:window-height="1057"
     inkscape:window-x="0"
     inkscape:window-y="21"
     inkscape:window-maximized="1"
     objecttolerance="3" />
  <defs
     id="defs2" />
  <metadata
     id="metadata5">
    <rdf:RDF>
      <cc:Work
         rdf:about="">
        <dc:format>image/svg+xml</dc:format>
        <dc:type
           rdf:resource="http://purl.org/dc/dcmitype/StillImage" />
        <dc:title></dc:title>
      </cc:Work>
    </rdf:RDF>
  </metadata>
  <g
     id="layer1"
     inkscape:groupmode="layer"
     inkscape:label="Layer 1">
    <path
       id="path1766"
       inkscape:label="part"
       style="fill:none;stroke:#000000;stroke-width:1"
       d="m 100.42254,371.00954 h 10.33333 v -4 h 10 v 4 h 14.33334 v -4 h 10 v 4 h 10.33333"
       inkscape:connector-curvature="0" />
    <path
       id="path1768"
       inkscape:label="part"
       style="fill:none;stroke:#000000;stroke-width:1"
       d="m 155.42254,371.00954 v 9.6 h 4 v 10 h -4 v 13.6 h 4 v 10 h -4 v 13.6 h 4 v 10 h -4 v 13.6 h 4 v 10 h -4 v 9.6"
       inkscape:connector-curvature="0" />
    <path
       id="path1770"
       inkscape:label="part"
       style="fill:none;stroke:#000000;stroke-width:1;stroke-miterlimit:4;stroke-dasharray:none"
       d="m 155.42254,471.00954 h -10.33333 v 4 h -10 v -4 h -14.33334 v 4 h -10 v -4 h -10.33333"
       inkscape:connector-curvature="0" />
    <path
       id="path1772"
       inkscape:label="part"
       style="fill:none;stroke:#000000;stroke-width:1"
       d="m 100.42254,471.00954 v -9.6 h -3.999996 v -10 h 3.999996 v -13.6 h -3.999996 v -10 h 3.999996 v -13.6 h -3.999996 v -10 h 3.999996 v -13.6 h -3.999996 v -10 h 3.999996 v -9.6"
       inkscape:connector-curvature="0" />
    <g
       id="g6360"
       transform="translate(-89.661115,299.71905)">
      <path
         inkscape:connector-curvature="0"
         d="m 259.5,70 h 10.33333 v -4 h 10 v 4 h 14.33334 v -4 h 10 v 4 H 314.5"
         style="fill:none;stroke:#000000;stroke-width:1"
         inkscape:label="part"
         id="path1782" />
      <path
         inkscape:connector-curvature="0"
         d="m 314.5,70 v 9.6 h 4 v 10 h -4 v 13.6 h 4 v 10 h -4 v 13.6 h 4 v 10 h -4 v 13.6 h 4 v 10 h -4 v 9.6"
         style="fill:none;stroke:#000000;stroke-width:1"
         inkscape:label="part"
         id="path1784" />
      <path
         inkscape:connector-curvature="0"
         d="m 314.5,170 h -10.33333 v 4 h -10 v -4 h -14.33334 v 4 h -10 v -4 H 259.5"
         style="fill:none;stroke:#000000;stroke-width:1"
         inkscape:label="part"
         id="path1786" />
      <path
         inkscape:connector-curvature="0"
         d="m 259.5,170 v -9.6 h -4 v -10 h 4 v -13.6 h -4 v -10 h 4 v -13.6 h -4 v -10 h 4 V 89.6 h -4 v -10 h 4 V 70"
         style="fill:none;stroke:#000000;stroke-width:1"
         inkscape:label="part"
         id="path1788" />
    </g>
    <g
       id="g6354"
       transform="translate(-281.1822,184.98816)">
      <path
         d="m 320,66 h 12 v 4 h 10 v -4 h 12 v 4 h 10 v -4 h 12 v 4 h 10 v -4 h 12 v 4 h 10 v -4 h 12 v 4 h 10 v -4 h 12 v 4 h 10 v -4 h 12 v 4 h 10 v -4 h 12 v 4 h 10 v -4 h 12"
         style="fill:none;stroke:#000000;stroke-width:1"
         inkscape:label="part"
         id="path1790"
         inkscape:connector-curvature="0" />
      <path
         d="m 508,66 v 13.6 h -4 v 10 h 4 v 13.6 h -4 v 10 h 4 v 13.6 h -4 v 10 h 4 v 13.6 h -4 v 10 h 4 V 174"
         style="fill:none;stroke:#000000;stroke-width:1"
         inkscape:label="part"
         id="path1792"
         inkscape:connector-curvature="0" />
      <path
         d="m 508,174 h -12 v -4 h -10 v 4 h -12 v -4 h -10 v 4 h -12 v -4 h -10 v 4 h -12 v -4 h -10 v 4 h -12 v -4 h -10 v 4 h -12 v -4 h -10 v 4 h -12 v -4 h -10 v 4 h -12 v -4 h -10 v 4 h -12"
         style="fill:none;stroke:#000000;stroke-width:1"
         inkscape:label="part"
         id="path1794"
         inkscape:connector-curvature="0" />
      <path
         d="m 320,174 v -13.6 h 4 v -10 h -4 v -13.6 h 4 v -10 h -4 v -13.6 h 4 v -10 h -4 V 89.6 h 4 v -10 h -4 V 66"
         style="fill:none;stroke:#000000;stroke-width:1"
         inkscape:label="part"
         id="path1796"
         inkscape:connector-curvature="0" />
    </g>
    <rect
       style="fill:none;fill-opacity:0.66758237;stroke:#808000;stroke-width:1;stroke-miterlimit:4;stroke-dasharray:none;stroke-opacity:1"
       id="rect6470"
       width="49"
       height="24"
       x="0.18342464"
       y="0.69437522" />
    <rect
       style="fill:none;fill-opacity:0.66758237;stroke:#808000;stroke-width:0.99999994;stroke-miterlimit:4;stroke-dasharray:none;stroke-opacity:1"
       id="rect6616"
       width="201.08333"
       height="359.83337"
       x="52.160717"
       y="0.66665649" />
    <rect
       y="0.57495165"
       x="77.668541"
       height="9"
       width="19"
       id="rect6714"
       style="fill:none;fill-opacity:0.66758237;stroke:#808000;stroke-width:1;stroke-miterlimit:4;stroke-dasharray:none;stroke-opacity:1" />
  </g>
  <g
     id="g1807"
     inkscape:groupmode="layer"
     inkscape:label="newlayer" />
</svg>
