<?xml version="1.0" encoding="UTF-8" standalone="no"?>
<!-- Created with Inkscape (http://www.inkscape.org/) -->

<svg
   xmlns:dc="http://purl.org/dc/elements/1.1/"
   xmlns:cc="http://creativecommons.org/ns#"
   xmlns:rdf="http://www.w3.org/1999/02/22-rdf-syntax-ns#"
   xmlns:svg="http://www.w3.org/2000/svg"
   xmlns="http://www.w3.org/2000/svg"
   xmlns:sodipodi="http://sodipodi.sourceforge.net/DTD/sodipodi-0.dtd"
   xmlns:inkscape="http://www.inkscape.org/namespaces/inkscape"
   width="210mm"
   height="297mm"
   viewBox="0 0 210 297"
   version="1.1"
   id="svg8"
   inkscape:version="0.92.2 5c3e80d, 2017-08-06"
   sodipodi:docname="drawing2.svg">
  <sodipodi:namedview
     id="base"
     pagecolor="#ffffff"
     bordercolor="#666666"
     borderopacity="1.0"
     inkscape:pageopacity="0.0"
     inkscape:pageshadow="2"
     inkscape:zoom="0.7"
     inkscape:cx="617.44569"
     inkscape:cy="742.99633"
     inkscape:document-units="mm"
     inkscape:current-layer="layer1"
     showgrid="false"
     inkscape:window-width="1918"
     inkscape:window-height="1057"
     inkscape:window-x="0"
     inkscape:window-y="21"
     inkscape:window-maximized="1"
     objecttolerance="3" />
  <defs
     id="defs2" />
  <metadata
     id="metadata5">
    <rdf:RDF>
      <cc:Work
         rdf:about="">
        <dc:format>image/svg+xml</dc:format>
        <dc:type
           rdf:resource="http://purl.org/dc/dcmitype/StillImage" />
        <dc:title></dc:title>
      </cc:Work>
    </rdf:RDF>
  </metadata>
  <g
     id="layer1"
     inkscape:groupmode="layer"
     inkscape:label="Layer 1">
    <rect
       y="101.26163"
       x="77.60202"
       height="30.735409"
       width="65.73542"
       id="rect62"
       style="fill:#0000ff;fill-opacity:0.66758237;stroke:#808000;stroke-width:0.26458326;stroke-miterlimit:4;stroke-dasharray:none;stroke-opacity:1" />
    <g
       id="g6419"
       transform="translate(-11.123103,9.315073)"
       style="stroke:#00ff00">
      <rect
         style="fill:none;fill-opacity:0.66758237;stroke:#00ff00;stroke-width:0.26458335;stroke-miterlimit:4;stroke-dasharray:none;stroke-opacity:1"
         id="rect48"
         width="12.535417"
         height="19.735416"
         x="111.25771"
         y="96.902863" />
      <rect
         y="96.902863"
         x="135.43524"
         height="19.735416"
         width="12.535417"
         id="rect50"
         style="fill:none;fill-opacity:0.66758237;stroke:#00ff00;stroke-width:0.26458335;stroke-miterlimit:4;stroke-dasharray:none;stroke-opacity:1" />
      <rect
         style="fill:none;fill-opacity:0.66758237;stroke:#00ff00;stroke-width:0.26458335;stroke-miterlimit:4;stroke-dasharray:none;stroke-opacity:1"
         id="rect52"
         width="11.235416"
         height="19.735416"
         x="87.780182"
         y="96.902863" />
    </g>
    <rect
       style="fill:#00ffff;fill-opacity:0.66758237;stroke:#808000;stroke-width:0.26458332;stroke-miterlimit:4;stroke-dasharray:none;stroke-opacity:1"
       id="rect76"
       width="79.73542"
       height="35.735416"
       x="150.3367"
       y="98.217934" />
    <rect
       y="103.91793"
       x="154.68671"
       height="24.235416"
       width="71.235413"
       id="rect54"
       style="fill:none;fill-opacity:0.66758237;stroke:#00ff00;stroke-width:0.26458332;stroke-miterlimit:4;stroke-dasharray:none;stroke-opacity:1" />
    <rect
       y="134.04692"
       x="155.52116"
       height="35.735416"
       width="69.73542"
       id="rect56"
       style="fill:#0000ff;fill-opacity:0.66758237;stroke:#808000;stroke-width:0.26458332;stroke-miterlimit:4;stroke-dasharray:none;stroke-opacity:1" />
    <rect
       style="fill:#0000ff;fill-opacity:0.66758237;stroke:#808000;stroke-width:0.26458332;stroke-miterlimit:4;stroke-dasharray:none;stroke-opacity:1"
       id="rect58"
       width="54.735416"
       height="33.735416"
       x="85.135971"
       y="134.99078" />
    <rect
       transform="rotate(-90)"
       y="77.602013"
       x="-166.13248"
       height="20.135416"
       width="34.135414"
       id="rect66"
       style="fill:#0000ff;fill-opacity:0.66758237;stroke:#808000;stroke-width:0.26458332;stroke-miterlimit:4;stroke-dasharray:none;stroke-opacity:1" />
    <g
       id="g6400"
       transform="translate(-13.041842,10.370296)"
       style="fill:none;stroke:#ff0000">
      <circle
         style="fill:none;fill-opacity:0.66758237;stroke:#ff0000;stroke-width:0.26458332;stroke-miterlimit:4;stroke-dasharray:none;stroke-opacity:1"
         id="path68"
         cx="116.21564"
         cy="32.850002"
         r="7.8677082" />
      <circle
         cy="32.850002"
         cx="207.62184"
         id="circle70"
         style="fill:none;fill-opacity:0.66758237;stroke:#ff0000;stroke-width:0.26458332;stroke-miterlimit:4;stroke-dasharray:none;stroke-opacity:1"
         r="7.8677082" />
    </g>
    <rect
       y="80.220299"
       x="104.2384"
       height="17.137203"
       width="15.435417"
       id="rect72"
       style="fill:#0000ff;fill-opacity:0.66758237;stroke:#808000;stroke-width:0.26458332;stroke-miterlimit:4;stroke-dasharray:none;stroke-opacity:1" />
    <g
       id="g6396"
       transform="translate(-11.123103,10.220298)">
      <path
         inkscape:connector-curvature="0"
         d="m 66,179.5 h 12 v -4 h 10 v 4 h 12 v -4 h 10 v 4 h 12 v -4 h 10 v 4 h 12 v -4 h 10 v 4 h 12 v -4 h 10 v 4 h 12 v -4 h 10 v 4 h 12 v -4 h 10 v 4 h 12 v -4 h 10 v 4 h 12"
         style="fill:none;stroke:#000000;stroke-width:1"
         inkscape:label="part"
         id="path1758" />
      <path
         inkscape:connector-curvature="0"
         d="m 254,179.5 v 10.33333 h -4 v 10 h 4 v 14.33334 h -4 v 10 h 4 V 234.5"
         style="fill:none;stroke:#000000;stroke-width:1"
         inkscape:label="part"
         id="path1760" />
      <path
         inkscape:connector-curvature="0"
         d="m 254,234.5 h -12 v 4 h -10 v -4 h -12 v 4 h -10 v -4 h -12 v 4 h -10 v -4 h -12 v 4 h -10 v -4 h -12 v 4 h -10 v -4 h -12 v 4 h -10 v -4 h -12 v 4 h -10 v -4 H 88 v 4 H 78 v -4 H 66"
         style="fill:none;stroke:#000000;stroke-width:1"
         inkscape:label="part"
         id="path1762" />
      <path
         inkscape:connector-curvature="0"
         d="m 66,234.5 v -10.33333 h 4 v -10 h -4 v -14.33334 h 4 v -10 H 66 V 179.5"
         style="fill:none;stroke:#000000;stroke-width:1"
         inkscape:label="part"
         id="path1764" />
    </g>
    <path
       id="path1766"
       inkscape:label="part"
       style="fill:none;stroke:#000000;stroke-width:1"
       d="m 116.85962,371.00954 h 10.33333 v -4 h 10 v 4 h 14.33334 v -4 h 10 v 4 h 10.33333"
       inkscape:connector-curvature="0" />
    <path
       id="path1768"
       inkscape:label="part"
       style="fill:none;stroke:#000000;stroke-width:1"
       d="m 171.85962,371.00954 v 9.6 h 4 v 10 h -4 v 13.6 h 4 v 10 h -4 v 13.6 h 4 v 10 h -4 v 13.6 h 4 v 10 h -4 v 9.6"
       inkscape:connector-curvature="0" />
    <path
       id="path1770"
       inkscape:label="part"
       style="fill:none;stroke:#000000;stroke-width:1;stroke-miterlimit:4;stroke-dasharray:none"
       d="m 171.85962,471.00954 h -10.33333 v 4 h -10 v -4 h -14.33334 v 4 h -10 v -4 h -10.33333"
       inkscape:connector-curvature="0" />
    <path
       id="path1772"
       inkscape:label="part"
       style="fill:none;stroke:#000000;stroke-width:1"
       d="m 116.85962,471.00954 v -9.6 h -4 v -10 h 4 v -13.6 h -4 v -10 h 4 v -13.6 h -4 v -10 h 4 v -13.6 h -4 v -10 h 4 v -9.6"
       inkscape:connector-curvature="0" />
    <g
       id="g6384"
       transform="translate(-11.123103,10.220298)">
      <path
         inkscape:connector-curvature="0"
         d="m 66,66 h 12 v 4 h 10 v -4 h 12 v 4 h 10 v -4 h 12 v 4 h 10 v -4 h 12 v 4 h 10 v -4 h 12 v 4 h 10 v -4 h 12 v 4 h 10 v -4 h 12 v 4 h 10 v -4 h 12 v 4 h 10 v -4 h 12"
         style="fill:none;stroke:#000000;stroke-width:1"
         inkscape:label="part"
         id="path1774" />
      <path
         inkscape:connector-curvature="0"
         d="m 254,66 v 13.6 h -4 v 10 h 4 v 13.6 h -4 v 10 h 4 v 13.6 h -4 v 10 h 4 v 13.6 h -4 v 10 h 4 V 174"
         style="fill:none;stroke:#000000;stroke-width:1"
         inkscape:label="part"
         id="path1776" />
      <path
         inkscape:connector-curvature="0"
         d="m 254,174 h -12 v -4 h -10 v 4 h -12 v -4 h -10 v 4 h -12 v -4 h -10 v 4 h -12 v -4 h -10 v 4 h -12 v -4 h -10 v 4 h -12 v -4 h -10 v 4 h -12 v -4 h -10 v 4 H 88 v -4 H 78 v 4 H 66"
         style="fill:none;stroke:#000000;stroke-width:1"
         inkscape:label="part"
         id="path1778" />
      <path
         inkscape:connector-curvature="0"
         d="m 66,174 v -13.6 h 4 v -10 h -4 v -13.6 h 4 v -10 h -4 v -13.6 h 4 v -10 H 66 V 89.6 h 4 v -10 H 66 V 66"
         style="fill:none;stroke:#000000;stroke-width:1"
         inkscape:label="part"
         id="path1780" />
    </g>
    <g
       id="g6360"
       transform="translate(-73.224039,299.71905)">
      <path
         inkscape:connector-curvature="0"
         d="m 259.5,70 h 10.33333 v -4 h 10 v 4 h 14.33334 v -4 h 10 v 4 H 314.5"
         style="fill:none;stroke:#000000;stroke-width:1"
         inkscape:label="part"
         id="path1782" />
      <path
         inkscape:connector-curvature="0"
         d="m 314.5,70 v 9.6 h 4 v 10 h -4 v 13.6 h 4 v 10 h -4 v 13.6 h 4 v 10 h -4 v 13.6 h 4 v 10 h -4 v 9.6"
         style="fill:none;stroke:#000000;stroke-width:1"
         inkscape:label="part"
         id="path1784" />
      <path
         inkscape:connector-curvature="0"
         d="m 314.5,170 h -10.33333 v 4 h -10 v -4 h -14.33334 v 4 h -10 v -4 H 259.5"
         style="fill:none;stroke:#000000;stroke-width:1"
         inkscape:label="part"
         id="path1786" />
      <path
         inkscape:connector-curvature="0"
         d="m 259.5,170 v -9.6 h -4 v -10 h 4 v -13.6 h -4 v -10 h 4 v -13.6 h -4 v -10 h 4 V 89.6 h -4 v -10 h 4 V 70"
         style="fill:none;stroke:#000000;stroke-width:1"
         inkscape:label="part"
         id="path1788" />
    </g>
    <g
       id="g6354"
       transform="translate(-264.74512,184.98816)">
      <path
         d="m 320,66 h 12 v 4 h 10 v -4 h 12 v 4 h 10 v -4 h 12 v 4 h 10 v -4 h 12 v 4 h 10 v -4 h 12 v 4 h 10 v -4 h 12 v 4 h 10 v -4 h 12 v 4 h 10 v -4 h 12 v 4 h 10 v -4 h 12"
         style="fill:none;stroke:#000000;stroke-width:1"
         inkscape:label="part"
         id="path1790"
         inkscape:connector-curvature="0" />
      <path
         d="m 508,66 v 13.6 h -4 v 10 h 4 v 13.6 h -4 v 10 h 4 v 13.6 h -4 v 10 h 4 v 13.6 h -4 v 10 h 4 V 174"
         style="fill:none;stroke:#000000;stroke-width:1"
         inkscape:label="part"
         id="path1792"
         inkscape:connector-curvature="0" />
      <path
         d="m 508,174 h -12 v -4 h -10 v 4 h -12 v -4 h -10 v 4 h -12 v -4 h -10 v 4 h -12 v -4 h -10 v 4 h -12 v -4 h -10 v 4 h -12 v -4 h -10 v 4 h -12 v -4 h -10 v 4 h -12 v -4 h -10 v 4 h -12"
         style="fill:none;stroke:#000000;stroke-width:1"
         inkscape:label="part"
         id="path1794"
         inkscape:connector-curvature="0" />
      <path
         d="m 320,174 v -13.6 h 4 v -10 h -4 v -13.6 h 4 v -10 h -4 v -13.6 h 4 v -10 h -4 V 89.6 h 4 v -10 h -4 V 66"
         style="fill:none;stroke:#000000;stroke-width:1"
         inkscape:label="part"
         id="path1796"
         inkscape:connector-curvature="0" />
    </g>
    <rect
       style="fill:#0000ff;fill-opacity:0.66758237;stroke:#808000;stroke-width:0.26458332;stroke-miterlimit:4;stroke-dasharray:none;stroke-opacity:1"
       id="rect74"
       width="15.435417"
       height="17.137203"
       x="183.44148"
       y="80.220299" />
    <g
       id="g6378"
       transform="translate(-11.123103,10.220298)"
       style="stroke:#ff00ff">
      <path
         d="m 66,5.5 h 12 v -4 h 10 v 4 h 12 v -4 h 10 v 4 h 12 v -4 h 10 v 4 h 12 v -4 h 10 v 4 h 12 v -4 h 10 v 4 h 12 v -4 h 10 v 4 h 12 v -4 h 10 v 4 h 12 v -4 h 10 v 4 h 12"
         style="fill:none;stroke:#ff00ff;stroke-width:1"
         inkscape:label="part"
         id="path1798"
         inkscape:connector-curvature="0" />
      <path
         d="m 254,5.5 v 10.333333 h -4 v 10 h 4 v 14.333334 h -4 v 10 h 4 V 60.5"
         style="fill:none;stroke:#ff00ff;stroke-width:1"
         inkscape:label="part"
         id="path1800"
         inkscape:connector-curvature="0" />
      <path
         d="m 254,60.5 h -12 v 4 h -10 v -4 h -12 v 4 h -10 v -4 h -12 v 4 h -10 v -4 h -12 v 4 h -10 v -4 h -12 v 4 h -10 v -4 h -12 v 4 h -10 v -4 h -12 v 4 h -10 v -4 H 88 v 4 H 78 v -4 H 66"
         style="fill:none;stroke:#ff00ff;stroke-width:1"
         inkscape:label="part"
         id="path1802"
         inkscape:connector-curvature="0" />
      <path
         d="M 66,60.5 V 50.166667 h 4 v -10 H 66 V 25.833333 h 4 v -10 H 66 V 5.5"
         style="fill:none;stroke:#ff00ff;stroke-width:1"
         inkscape:label="part"
         id="path1804"
         inkscape:connector-curvature="0" />
    </g>
    <rect
       style="fill:none;fill-opacity:0.66758237;stroke:#808000;stroke-width:1;stroke-miterlimit:4;stroke-dasharray:none;stroke-opacity:1"
       id="rect6470"
       width="49"
       height="24"
       x="0.18342464"
       y="0.69437522" />
    <rect
       style="fill:none;fill-opacity:0.66758237;stroke:#808000;stroke-width:0.99999994;stroke-miterlimit:4;stroke-dasharray:none;stroke-opacity:1"
       id="rect6616"
       width="201.08333"
       height="359.83337"
       x="52.160717"
       y="0.66665649" />
    <rect
       y="0.57495165"
       x="77.668541"
       height="9"
       width="19"
       id="rect6714"
       style="fill:none;fill-opacity:0.66758237;stroke:#808000;stroke-width:1;stroke-miterlimit:4;stroke-dasharray:none;stroke-opacity:1" />
  </g>
  <g
     id="g1807"
     inkscape:groupmode="layer"
     inkscape:label="newlayer" />
</svg>
