<?xml version="1.0" encoding="UTF-8" standalone="no"?>
<!-- Created with Inkscape (http://www.inkscape.org/) -->

<svg
   xmlns:dc="http://purl.org/dc/elements/1.1/"
   xmlns:cc="http://creativecommons.org/ns#"
   xmlns:rdf="http://www.w3.org/1999/02/22-rdf-syntax-ns#"
   xmlns:svg="http://www.w3.org/2000/svg"
   xmlns="http://www.w3.org/2000/svg"
   xmlns:sodipodi="http://sodipodi.sourceforge.net/DTD/sodipodi-0.dtd"
   xmlns:inkscape="http://www.inkscape.org/namespaces/inkscape"
   width="210mm"
   height="297mm"
   viewBox="0 0 210 297"
   version="1.1"
   id="svg8"
   inkscape:version="0.92.2 5c3e80d, 2017-08-06"
   sodipodi:docname="drawing.svg">
  <sodipodi:namedview
     id="base"
     pagecolor="#ffffff"
     bordercolor="#666666"
     borderopacity="1.0"
     inkscape:pageopacity="0.0"
     inkscape:pageshadow="2"
     inkscape:zoom="0.98994949"
     inkscape:cx="888.76884"
     inkscape:cy="627.54369"
     inkscape:document-units="mm"
     inkscape:current-layer="layer1"
     showgrid="false"
     inkscape:window-width="1918"
     inkscape:window-height="1057"
     inkscape:window-x="0"
     inkscape:window-y="21"
     inkscape:window-maximized="1"
     objecttolerance="3" />
  <defs
     id="defs2" />
  <metadata
     id="metadata5">
    <rdf:RDF>
      <cc:Work
         rdf:about="">
        <dc:format>image/svg+xml</dc:format>
        <dc:type
           rdf:resource="http://purl.org/dc/dcmitype/StillImage" />
        <dc:title></dc:title>
      </cc:Work>
    </rdf:RDF>
  </metadata>
  <g
     id="layer1"
     inkscape:groupmode="layer"
     inkscape:label="Layer 1">
    <g
       id="g6466"
       transform="translate(76.52671,49.692169)">
      <rect
         style="fill:#0000ff;fill-opacity:0.66758237;stroke:#808000;stroke-width:0.26458326;stroke-miterlimit:4;stroke-dasharray:none;stroke-opacity:1"
         id="rect62"
         width="65.73542"
         height="30.735409"
         x="88.725121"
         y="91.041336" />
      <g
         transform="translate(0,-0.9052248)"
         id="g6419">
        <rect
           y="96.902863"
           x="111.25771"
           height="19.735416"
           width="12.535417"
           id="rect48"
           style="fill:none;fill-opacity:0.66758237;stroke:#ff0000;stroke-width:0.26458335;stroke-miterlimit:4;stroke-dasharray:none;stroke-opacity:1" />
        <rect
           style="fill:none;fill-opacity:0.66758237;stroke:#ff0000;stroke-width:0.26458335;stroke-miterlimit:4;stroke-dasharray:none;stroke-opacity:1"
           id="rect50"
           width="12.535417"
           height="19.735416"
           x="135.43524"
           y="96.902863" />
        <rect
           y="96.902863"
           x="87.780182"
           height="19.735416"
           width="11.235416"
           id="rect52"
           style="fill:none;fill-opacity:0.66758237;stroke:#ff0000;stroke-width:0.26458335;stroke-miterlimit:4;stroke-dasharray:none;stroke-opacity:1" />
      </g>
      <rect
         y="87.997635"
         x="161.45981"
         height="35.735416"
         width="79.73542"
         id="rect76"
         style="fill:#00ffff;fill-opacity:0.66758237;stroke:#808000;stroke-width:0.26458332;stroke-miterlimit:4;stroke-dasharray:none;stroke-opacity:1" />
      <rect
         style="fill:none;fill-opacity:0.66758237;stroke:#ff0000;stroke-width:0.26458332;stroke-miterlimit:4;stroke-dasharray:none;stroke-opacity:1"
         id="rect54"
         width="71.235413"
         height="24.235416"
         x="165.80981"
         y="93.697639" />
      <rect
         style="fill:#0000ff;fill-opacity:0.66758237;stroke:#808000;stroke-width:0.26458332;stroke-miterlimit:4;stroke-dasharray:none;stroke-opacity:1"
         id="rect56"
         width="69.73542"
         height="35.735416"
         x="166.64426"
         y="123.82664" />
      <rect
         y="124.7705"
         x="96.259071"
         height="33.735416"
         width="54.735416"
         id="rect58"
         style="fill:#0000ff;fill-opacity:0.66758237;stroke:#808000;stroke-width:0.26458332;stroke-miterlimit:4;stroke-dasharray:none;stroke-opacity:1" />
      <rect
         style="fill:#0000ff;fill-opacity:0.66758237;stroke:#808000;stroke-width:0.26458332;stroke-miterlimit:4;stroke-dasharray:none;stroke-opacity:1"
         id="rect66"
         width="34.135414"
         height="20.135416"
         x="-155.91217"
         y="88.725121"
         transform="rotate(-90)" />
      <g
         style="fill:none;stroke:#ff0000"
         transform="translate(-1.9187393,0.14999771)"
         id="g6400">
        <circle
           r="7.8677082"
           cy="32.850002"
           cx="116.21564"
           id="path68"
           style="fill:none;fill-opacity:0.66758237;stroke:#ff0000;stroke-width:0.26458332;stroke-miterlimit:4;stroke-dasharray:none;stroke-opacity:1" />
        <circle
           r="7.8677082"
           style="fill:none;fill-opacity:0.66758237;stroke:#ff0000;stroke-width:0.26458332;stroke-miterlimit:4;stroke-dasharray:none;stroke-opacity:1"
           id="circle70"
           cx="207.62184"
           cy="32.850002" />
      </g>
      <rect
         style="fill:#0000ff;fill-opacity:0.66758237;stroke:#808000;stroke-width:0.26458332;stroke-miterlimit:4;stroke-dasharray:none;stroke-opacity:1"
         id="rect72"
         width="15.435417"
         height="17.137203"
         x="115.3615"
         y="70" />
      <g
         id="g6396">
        <path
           id="path1758"
           inkscape:label="part"
           style="fill:none;stroke:#000000;stroke-width:1"
           d="m 66,179.5 h 12 v -4 h 10 v 4 h 12 v -4 h 10 v 4 h 12 v -4 h 10 v 4 h 12 v -4 h 10 v 4 h 12 v -4 h 10 v 4 h 12 v -4 h 10 v 4 h 12 v -4 h 10 v 4 h 12 v -4 h 10 v 4 h 12"
           inkscape:connector-curvature="0" />
        <path
           id="path1760"
           inkscape:label="part"
           style="fill:none;stroke:#000000;stroke-width:1"
           d="m 254,179.5 v 10.33333 h -4 v 10 h 4 v 14.33334 h -4 v 10 h 4 V 234.5"
           inkscape:connector-curvature="0" />
        <path
           id="path1762"
           inkscape:label="part"
           style="fill:none;stroke:#000000;stroke-width:1"
           d="m 254,234.5 h -12 v 4 h -10 v -4 h -12 v 4 h -10 v -4 h -12 v 4 h -10 v -4 h -12 v 4 h -10 v -4 h -12 v 4 h -10 v -4 h -12 v 4 h -10 v -4 h -12 v 4 h -10 v -4 H 88 v 4 H 78 v -4 H 66"
           inkscape:connector-curvature="0" />
        <path
           id="path1764"
           inkscape:label="part"
           style="fill:none;stroke:#000000;stroke-width:1"
           d="m 66,234.5 v -10.33333 h 4 v -10 h -4 v -14.33334 h 4 v -10 H 66 V 179.5"
           inkscape:connector-curvature="0" />
      </g>
      <g
         id="g6390">
        <path
           id="path1766"
           inkscape:label="part"
           style="fill:none;stroke:#000000;stroke-width:1"
           d="m 5.5,70 h 10.333333 v -4 h 10 v 4 h 14.333334 v -4 h 10 v 4 H 60.5"
           inkscape:connector-curvature="0" />
        <path
           id="path1768"
           inkscape:label="part"
           style="fill:none;stroke:#000000;stroke-width:1"
           d="m 60.5,70 v 9.6 h 4 v 10 h -4 v 13.6 h 4 v 10 h -4 v 13.6 h 4 v 10 h -4 v 13.6 h 4 v 10 h -4 v 9.6"
           inkscape:connector-curvature="0" />
        <path
           id="path1770"
           inkscape:label="part"
           style="fill:none;stroke:#000000;stroke-width:1;stroke-miterlimit:4;stroke-dasharray:none"
           d="M 60.5,170 H 50.166667 v 4 h -10 v -4 H 25.833333 v 4 h -10 v -4 H 5.5"
           inkscape:connector-curvature="0" />
        <path
           id="path1772"
           inkscape:label="part"
           style="fill:none;stroke:#000000;stroke-width:1"
           d="m 5.5,170 v -9.6 h -4 v -10 h 4 v -13.6 h -4 v -10 h 4 v -13.6 h -4 v -10 h 4 V 89.6 h -4 v -10 h 4 V 70"
           inkscape:connector-curvature="0" />
      </g>
      <g
         id="g6384">
        <path
           id="path1774"
           inkscape:label="part"
           style="fill:none;stroke:#000000;stroke-width:1"
           d="m 66,66 h 12 v 4 h 10 v -4 h 12 v 4 h 10 v -4 h 12 v 4 h 10 v -4 h 12 v 4 h 10 v -4 h 12 v 4 h 10 v -4 h 12 v 4 h 10 v -4 h 12 v 4 h 10 v -4 h 12 v 4 h 10 v -4 h 12"
           inkscape:connector-curvature="0" />
        <path
           id="path1776"
           inkscape:label="part"
           style="fill:none;stroke:#000000;stroke-width:1"
           d="m 254,66 v 13.6 h -4 v 10 h 4 v 13.6 h -4 v 10 h 4 v 13.6 h -4 v 10 h 4 v 13.6 h -4 v 10 h 4 V 174"
           inkscape:connector-curvature="0" />
        <path
           id="path1778"
           inkscape:label="part"
           style="fill:none;stroke:#000000;stroke-width:1"
           d="m 254,174 h -12 v -4 h -10 v 4 h -12 v -4 h -10 v 4 h -12 v -4 h -10 v 4 h -12 v -4 h -10 v 4 h -12 v -4 h -10 v 4 h -12 v -4 h -10 v 4 h -12 v -4 h -10 v 4 H 88 v -4 H 78 v 4 H 66"
           inkscape:connector-curvature="0" />
        <path
           id="path1780"
           inkscape:label="part"
           style="fill:none;stroke:#000000;stroke-width:1"
           d="m 66,174 v -13.6 h 4 v -10 h -4 v -13.6 h 4 v -10 h -4 v -13.6 h 4 v -10 H 66 V 89.6 h 4 v -10 H 66 V 66"
           inkscape:connector-curvature="0" />
      </g>
      <g
         id="g6360">
        <path
           id="path1782"
           inkscape:label="part"
           style="fill:none;stroke:#000000;stroke-width:1"
           d="m 259.5,70 h 10.33333 v -4 h 10 v 4 h 14.33334 v -4 h 10 v 4 H 314.5"
           inkscape:connector-curvature="0" />
        <path
           id="path1784"
           inkscape:label="part"
           style="fill:none;stroke:#000000;stroke-width:1"
           d="m 314.5,70 v 9.6 h 4 v 10 h -4 v 13.6 h 4 v 10 h -4 v 13.6 h 4 v 10 h -4 v 13.6 h 4 v 10 h -4 v 9.6"
           inkscape:connector-curvature="0" />
        <path
           id="path1786"
           inkscape:label="part"
           style="fill:none;stroke:#000000;stroke-width:1"
           d="m 314.5,170 h -10.33333 v 4 h -10 v -4 h -14.33334 v 4 h -10 v -4 H 259.5"
           inkscape:connector-curvature="0" />
        <path
           id="path1788"
           inkscape:label="part"
           style="fill:none;stroke:#000000;stroke-width:1"
           d="m 259.5,170 v -9.6 h -4 v -10 h 4 v -13.6 h -4 v -10 h 4 v -13.6 h -4 v -10 h 4 V 89.6 h -4 v -10 h 4 V 70"
           inkscape:connector-curvature="0" />
      </g>
      <g
         transform="translate(-253.62202,174.76786)"
         id="g6354">
        <path
           inkscape:connector-curvature="0"
           id="path1790"
           inkscape:label="part"
           style="fill:none;stroke:#000000;stroke-width:1"
           d="m 320,66 h 12 v 4 h 10 v -4 h 12 v 4 h 10 v -4 h 12 v 4 h 10 v -4 h 12 v 4 h 10 v -4 h 12 v 4 h 10 v -4 h 12 v 4 h 10 v -4 h 12 v 4 h 10 v -4 h 12 v 4 h 10 v -4 h 12" />
        <path
           inkscape:connector-curvature="0"
           id="path1792"
           inkscape:label="part"
           style="fill:none;stroke:#000000;stroke-width:1"
           d="m 508,66 v 13.6 h -4 v 10 h 4 v 13.6 h -4 v 10 h 4 v 13.6 h -4 v 10 h 4 v 13.6 h -4 v 10 h 4 V 174" />
        <path
           inkscape:connector-curvature="0"
           id="path1794"
           inkscape:label="part"
           style="fill:none;stroke:#000000;stroke-width:1"
           d="m 508,174 h -12 v -4 h -10 v 4 h -12 v -4 h -10 v 4 h -12 v -4 h -10 v 4 h -12 v -4 h -10 v 4 h -12 v -4 h -10 v 4 h -12 v -4 h -10 v 4 h -12 v -4 h -10 v 4 h -12 v -4 h -10 v 4 h -12" />
        <path
           inkscape:connector-curvature="0"
           id="path1796"
           inkscape:label="part"
           style="fill:none;stroke:#000000;stroke-width:1"
           d="m 320,174 v -13.6 h 4 v -10 h -4 v -13.6 h 4 v -10 h -4 v -13.6 h 4 v -10 h -4 V 89.6 h 4 v -10 h -4 V 66" />
      </g>
      <rect
         y="70"
         x="194.56459"
         height="17.137203"
         width="15.435417"
         id="rect74"
         style="fill:#0000ff;fill-opacity:0.66758237;stroke:#808000;stroke-width:0.26458332;stroke-miterlimit:4;stroke-dasharray:none;stroke-opacity:1" />
      <g
         id="g6378">
        <path
           inkscape:connector-curvature="0"
           id="path1798"
           inkscape:label="part"
           style="fill:none;stroke:#000000;stroke-width:1"
           d="m 66,5.5 h 12 v -4 h 10 v 4 h 12 v -4 h 10 v 4 h 12 v -4 h 10 v 4 h 12 v -4 h 10 v 4 h 12 v -4 h 10 v 4 h 12 v -4 h 10 v 4 h 12 v -4 h 10 v 4 h 12 v -4 h 10 v 4 h 12" />
        <path
           inkscape:connector-curvature="0"
           id="path1800"
           inkscape:label="part"
           style="fill:none;stroke:#000000;stroke-width:1"
           d="m 254,5.5 v 10.333333 h -4 v 10 h 4 v 14.333334 h -4 v 10 h 4 V 60.5" />
        <path
           inkscape:connector-curvature="0"
           id="path1802"
           inkscape:label="part"
           style="fill:none;stroke:#000000;stroke-width:1"
           d="m 254,60.5 h -12 v 4 h -10 v -4 h -12 v 4 h -10 v -4 h -12 v 4 h -10 v -4 h -12 v 4 h -10 v -4 h -12 v 4 h -10 v -4 h -12 v 4 h -10 v -4 h -12 v 4 h -10 v -4 H 88 v 4 H 78 v -4 H 66" />
        <path
           inkscape:connector-curvature="0"
           id="path1804"
           inkscape:label="part"
           style="fill:none;stroke:#000000;stroke-width:1"
           d="M 66,60.5 V 50.166667 h 4 v -10 H 66 V 25.833333 h 4 v -10 H 66 V 5.5" />
      </g>
    </g>
  </g>
  <g
     id="g1807"
     inkscape:groupmode="layer"
     inkscape:label="newlayer" />
</svg>
